<?xml version="1.0" encoding="UTF-8" standalone="no"?>
<svg width="167.217mm" height="86.0778mm"
 viewBox="0 0 474 244"
 xmlns="http://www.w3.org/2000/svg" xmlns:xlink="http://www.w3.org/1999/xlink"  version="1.2" baseProfile="tiny">
<title>Qt SVG Document</title>
<desc>MATLAB, The MathWorks, Inc. Version 25.1.0.2943329 R2025a</desc>
<defs>
</defs>
<g fill="none" stroke="black" stroke-width="1" fill-rule="evenodd" stroke-linecap="square" stroke-linejoin="bevel" >

<g fill="#ffffff" fill-opacity="1" stroke="none" transform="matrix(0.75,0,0,0.75,-4.85125,14.445)"
font-family="SimSun" font-size="9" font-weight="400" font-style="normal" 
>
<path vector-effect="none" fill-rule="evenodd" d="M5,-20 L638,-20 L638,307 L5,307 L5,-20"/>
</g>

<g fill="#0072b2" fill-opacity="0.780392" stroke="none" transform="matrix(0.75,0,0,0.75,-4.85125,14.445)"
font-family="SimSun" font-size="9" font-weight="400" font-style="normal" 
>
<circle cx="99.1579" cy="114.533" r="3.52767"/>
</g>

<g fill="none" stroke="#ffffff" stroke-opacity="1" stroke-width="0.533333" stroke-linecap="butt" stroke-linejoin="miter" stroke-miterlimit="2" transform="matrix(0.75,0,0,0.75,-4.85125,14.445)"
font-family="SimSun" font-size="9" font-weight="400" font-style="normal" 
>
<path vector-effect="none" fill-rule="evenodd" d="M102.686,114.533 C102.686,112.585 101.106,111.005 99.1579,111.005 C97.2096,111.005 95.6302,112.585 95.6302,114.533 C95.6302,116.481 97.2096,118.061 99.1579,118.061 C101.106,118.061 102.686,116.481 102.686,114.533 "/>
</g>

<g fill="#0072b2" fill-opacity="0.780392" stroke="none" transform="matrix(0.75,0,0,0.75,-4.85125,14.445)"
font-family="SimSun" font-size="9" font-weight="400" font-style="normal" 
>
<circle cx="107.684" cy="72.368" r="3.52767"/>
</g>

<g fill="none" stroke="#ffffff" stroke-opacity="1" stroke-width="0.533333" stroke-linecap="butt" stroke-linejoin="miter" stroke-miterlimit="2" transform="matrix(0.75,0,0,0.75,-4.85125,14.445)"
font-family="SimSun" font-size="9" font-weight="400" font-style="normal" 
>
<path vector-effect="none" fill-rule="evenodd" d="M111.212,72.368 C111.212,70.4197 109.632,68.8403 107.684,68.8403 C105.736,68.8403 104.157,70.4197 104.157,72.368 C104.157,74.3162 105.736,75.8956 107.684,75.8956 C109.632,75.8956 111.212,74.3162 111.212,72.368 "/>
</g>

<g fill="#0072b2" fill-opacity="0.780392" stroke="none" transform="matrix(0.75,0,0,0.75,-4.85125,14.445)"
font-family="SimSun" font-size="9" font-weight="400" font-style="normal" 
>
<circle cx="116.211" cy="195.181" r="3.52767"/>
</g>

<g fill="none" stroke="#ffffff" stroke-opacity="1" stroke-width="0.533333" stroke-linecap="butt" stroke-linejoin="miter" stroke-miterlimit="2" transform="matrix(0.75,0,0,0.75,-4.85125,14.445)"
font-family="SimSun" font-size="9" font-weight="400" font-style="normal" 
>
<path vector-effect="none" fill-rule="evenodd" d="M119.738,195.181 C119.738,193.233 118.159,191.653 116.211,191.653 C114.262,191.653 112.683,193.233 112.683,195.181 C112.683,197.129 114.262,198.709 116.211,198.709 C118.159,198.709 119.738,197.129 119.738,195.181 "/>
</g>

<g fill="#0072b2" fill-opacity="0.780392" stroke="none" transform="matrix(0.75,0,0,0.75,-4.85125,14.445)"
font-family="SimSun" font-size="9" font-weight="400" font-style="normal" 
>
<circle cx="124.737" cy="39.3925" r="3.52767"/>
</g>

<g fill="none" stroke="#ffffff" stroke-opacity="1" stroke-width="0.533333" stroke-linecap="butt" stroke-linejoin="miter" stroke-miterlimit="2" transform="matrix(0.75,0,0,0.75,-4.85125,14.445)"
font-family="SimSun" font-size="9" font-weight="400" font-style="normal" 
>
<path vector-effect="none" fill-rule="evenodd" d="M128.265,39.3925 C128.265,37.4443 126.685,35.8649 124.737,35.8649 C122.789,35.8649 121.209,37.4443 121.209,39.3925 C121.209,41.3408 122.789,42.9202 124.737,42.9202 C126.685,42.9202 128.265,41.3408 128.265,39.3925 "/>
</g>

<g fill="#262626" fill-opacity="1" stroke="#262626" stroke-opacity="1" stroke-width="2.13333" stroke-linecap="butt" stroke-linejoin="round" transform="matrix(0.75,0,0,0.75,-4.85125,14.445)"
font-family="SimSun" font-size="9" font-weight="400" font-style="normal" 
>
<polyline fill="none" vector-effect="none" points="111.947,154.857 111.947,55.8803 " />
</g>

<g fill="#262626" fill-opacity="1" stroke="#262626" stroke-opacity="1" stroke-width="2.93333" stroke-linecap="butt" stroke-linejoin="round" transform="matrix(0.75,0,0,0.75,-4.85125,14.445)"
font-family="SimSun" font-size="9" font-weight="400" font-style="normal" 
>
<polyline fill="none" vector-effect="none" points="96.3158,93.4504 127.579,93.4504 " />
</g>

<g fill="#d55e00" fill-opacity="0.780392" stroke="none" transform="matrix(0.75,0,0,0.75,-4.85125,14.445)"
font-family="SimSun" font-size="9" font-weight="400" font-style="normal" 
>
<circle cx="241.263" cy="198.851" r="3.52767"/>
</g>

<g fill="none" stroke="#ffffff" stroke-opacity="1" stroke-width="0.533333" stroke-linecap="butt" stroke-linejoin="miter" stroke-miterlimit="2" transform="matrix(0.75,0,0,0.75,-4.85125,14.445)"
font-family="SimSun" font-size="9" font-weight="400" font-style="normal" 
>
<path vector-effect="none" fill-rule="evenodd" d="M244.791,198.851 C244.791,196.902 243.211,195.323 241.263,195.323 C239.315,195.323 237.735,196.902 237.735,198.851 C237.735,200.799 239.315,202.378 241.263,202.378 C243.211,202.378 244.791,200.799 244.791,198.851 "/>
</g>

<g fill="#d55e00" fill-opacity="0.780392" stroke="none" transform="matrix(0.75,0,0,0.75,-4.85125,14.445)"
font-family="SimSun" font-size="9" font-weight="400" font-style="normal" 
>
<circle cx="244.461" cy="204.181" r="3.52767"/>
</g>

<g fill="none" stroke="#ffffff" stroke-opacity="1" stroke-width="0.533333" stroke-linecap="butt" stroke-linejoin="miter" stroke-miterlimit="2" transform="matrix(0.75,0,0,0.75,-4.85125,14.445)"
font-family="SimSun" font-size="9" font-weight="400" font-style="normal" 
>
<path vector-effect="none" fill-rule="evenodd" d="M247.988,204.181 C247.988,202.232 246.409,200.653 244.461,200.653 C242.512,200.653 240.933,202.232 240.933,204.181 C240.933,206.129 242.512,207.708 244.461,207.708 C246.409,207.708 247.988,206.129 247.988,204.181 "/>
</g>

<g fill="#d55e00" fill-opacity="0.780392" stroke="none" transform="matrix(0.75,0,0,0.75,-4.85125,14.445)"
font-family="SimSun" font-size="9" font-weight="400" font-style="normal" 
>
<circle cx="247.658" cy="203.335" r="3.52767"/>
</g>

<g fill="none" stroke="#ffffff" stroke-opacity="1" stroke-width="0.533333" stroke-linecap="butt" stroke-linejoin="miter" stroke-miterlimit="2" transform="matrix(0.75,0,0,0.75,-4.85125,14.445)"
font-family="SimSun" font-size="9" font-weight="400" font-style="normal" 
>
<path vector-effect="none" fill-rule="evenodd" d="M251.186,203.335 C251.186,201.387 249.606,199.808 247.658,199.808 C245.71,199.808 244.13,201.387 244.13,203.335 C244.13,205.284 245.71,206.863 247.658,206.863 C249.606,206.863 251.186,205.284 251.186,203.335 "/>
</g>

<g fill="#d55e00" fill-opacity="0.780392" stroke="none" transform="matrix(0.75,0,0,0.75,-4.85125,14.445)"
font-family="SimSun" font-size="9" font-weight="400" font-style="normal" 
>
<circle cx="250.855" cy="167.128" r="3.52767"/>
</g>

<g fill="none" stroke="#ffffff" stroke-opacity="1" stroke-width="0.533333" stroke-linecap="butt" stroke-linejoin="miter" stroke-miterlimit="2" transform="matrix(0.75,0,0,0.75,-4.85125,14.445)"
font-family="SimSun" font-size="9" font-weight="400" font-style="normal" 
>
<path vector-effect="none" fill-rule="evenodd" d="M254.383,167.128 C254.383,165.18 252.804,163.601 250.855,163.601 C248.907,163.601 247.328,165.18 247.328,167.128 C247.328,169.077 248.907,170.656 250.855,170.656 C252.804,170.656 254.383,169.077 254.383,167.128 "/>
</g>

<g fill="#d55e00" fill-opacity="0.780392" stroke="none" transform="matrix(0.75,0,0,0.75,-4.85125,14.445)"
font-family="SimSun" font-size="9" font-weight="400" font-style="normal" 
>
<circle cx="254.053" cy="198.851" r="3.52767"/>
</g>

<g fill="none" stroke="#ffffff" stroke-opacity="1" stroke-width="0.533333" stroke-linecap="butt" stroke-linejoin="miter" stroke-miterlimit="2" transform="matrix(0.75,0,0,0.75,-4.85125,14.445)"
font-family="SimSun" font-size="9" font-weight="400" font-style="normal" 
>
<path vector-effect="none" fill-rule="evenodd" d="M257.58,198.851 C257.58,196.902 256.001,195.323 254.053,195.323 C252.104,195.323 250.525,196.902 250.525,198.851 C250.525,200.799 252.104,202.378 254.053,202.378 C256.001,202.378 257.58,200.799 257.58,198.851 "/>
</g>

<g fill="#d55e00" fill-opacity="0.780392" stroke="none" transform="matrix(0.75,0,0,0.75,-4.85125,14.445)"
font-family="SimSun" font-size="9" font-weight="400" font-style="normal" 
>
<circle cx="257.25" cy="256.177" r="3.52767"/>
</g>

<g fill="none" stroke="#ffffff" stroke-opacity="1" stroke-width="0.533333" stroke-linecap="butt" stroke-linejoin="miter" stroke-miterlimit="2" transform="matrix(0.75,0,0,0.75,-4.85125,14.445)"
font-family="SimSun" font-size="9" font-weight="400" font-style="normal" 
>
<path vector-effect="none" fill-rule="evenodd" d="M260.778,256.177 C260.778,254.229 259.198,252.649 257.25,252.649 C255.302,252.649 253.722,254.229 253.722,256.177 C253.722,258.125 255.302,259.704 257.25,259.704 C259.198,259.704 260.778,258.125 260.778,256.177 "/>
</g>

<g fill="#d55e00" fill-opacity="0.780392" stroke="none" transform="matrix(0.75,0,0,0.75,-4.85125,14.445)"
font-family="SimSun" font-size="9" font-weight="400" font-style="normal" 
>
<circle cx="260.447" cy="163.746" r="3.52767"/>
</g>

<g fill="none" stroke="#ffffff" stroke-opacity="1" stroke-width="0.533333" stroke-linecap="butt" stroke-linejoin="miter" stroke-miterlimit="2" transform="matrix(0.75,0,0,0.75,-4.85125,14.445)"
font-family="SimSun" font-size="9" font-weight="400" font-style="normal" 
>
<path vector-effect="none" fill-rule="evenodd" d="M263.975,163.746 C263.975,161.798 262.396,160.218 260.447,160.218 C258.499,160.218 256.92,161.798 256.92,163.746 C256.92,165.694 258.499,167.274 260.447,167.274 C262.396,167.274 263.975,165.694 263.975,163.746 "/>
</g>

<g fill="#d55e00" fill-opacity="0.780392" stroke="none" transform="matrix(0.75,0,0,0.75,-4.85125,14.445)"
font-family="SimSun" font-size="9" font-weight="400" font-style="normal" 
>
<circle cx="263.645" cy="204.181" r="3.52767"/>
</g>

<g fill="none" stroke="#ffffff" stroke-opacity="1" stroke-width="0.533333" stroke-linecap="butt" stroke-linejoin="miter" stroke-miterlimit="2" transform="matrix(0.75,0,0,0.75,-4.85125,14.445)"
font-family="SimSun" font-size="9" font-weight="400" font-style="normal" 
>
<path vector-effect="none" fill-rule="evenodd" d="M267.172,204.181 C267.172,202.232 265.593,200.653 263.645,200.653 C261.696,200.653 260.117,202.232 260.117,204.181 C260.117,206.129 261.696,207.708 263.645,207.708 C265.593,207.708 267.172,206.129 267.172,204.181 "/>
</g>

<g fill="#d55e00" fill-opacity="0.780392" stroke="none" transform="matrix(0.75,0,0,0.75,-4.85125,14.445)"
font-family="SimSun" font-size="9" font-weight="400" font-style="normal" 
>
<circle cx="266.842" cy="203.335" r="3.52767"/>
</g>

<g fill="none" stroke="#ffffff" stroke-opacity="1" stroke-width="0.533333" stroke-linecap="butt" stroke-linejoin="miter" stroke-miterlimit="2" transform="matrix(0.75,0,0,0.75,-4.85125,14.445)"
font-family="SimSun" font-size="9" font-weight="400" font-style="normal" 
>
<path vector-effect="none" fill-rule="evenodd" d="M270.37,203.335 C270.37,201.387 268.79,199.808 266.842,199.808 C264.894,199.808 263.314,201.387 263.314,203.335 C263.314,205.284 264.894,206.863 266.842,206.863 C268.79,206.863 270.37,205.284 270.37,203.335 "/>
</g>

<g fill="#262626" fill-opacity="1" stroke="#262626" stroke-opacity="1" stroke-width="2.13333" stroke-linecap="butt" stroke-linejoin="round" transform="matrix(0.75,0,0,0.75,-4.85125,14.445)"
font-family="SimSun" font-size="9" font-weight="400" font-style="normal" 
>
<polyline fill="none" vector-effect="none" points="254.053,204.18 254.053,190.92 " />
</g>

<g fill="#262626" fill-opacity="1" stroke="#262626" stroke-opacity="1" stroke-width="2.93333" stroke-linecap="butt" stroke-linejoin="round" transform="matrix(0.75,0,0,0.75,-4.85125,14.445)"
font-family="SimSun" font-size="9" font-weight="400" font-style="normal" 
>
<polyline fill="none" vector-effect="none" points="238.421,203.335 269.684,203.335 " />
</g>

<g fill="#d1d1d1" fill-opacity="0.54902" stroke="#d1d1d1" stroke-opacity="0.54902" stroke-width="1" stroke-linecap="butt" stroke-linejoin="round" transform="matrix(0.75,0,0,0.75,-4.85125,14.445)"
font-family="SimSun" font-size="9" font-weight="400" font-style="normal" 
>
<polyline fill="none" vector-effect="none" points="111.947,12 111.947,283 " />
<polyline fill="none" vector-effect="none" points="254.053,12 254.053,283 " />
<polyline fill="none" vector-effect="none" points="48,283 318,283 " />
<polyline fill="none" vector-effect="none" points="48,252.889 318,252.889 " />
<polyline fill="none" vector-effect="none" points="48,222.778 318,222.778 " />
<polyline fill="none" vector-effect="none" points="48,192.667 318,192.667 " />
<polyline fill="none" vector-effect="none" points="48,162.556 318,162.556 " />
<polyline fill="none" vector-effect="none" points="48,132.444 318,132.444 " />
<polyline fill="none" vector-effect="none" points="48,102.333 318,102.333 " />
<polyline fill="none" vector-effect="none" points="48,72.2222 318,72.2222 " />
<polyline fill="none" vector-effect="none" points="48,42.1111 318,42.1111 " />
<polyline fill="none" vector-effect="none" points="48,12 318,12 " />
</g>

<g fill="#2e2e2e" fill-opacity="1" stroke="#2e2e2e" stroke-opacity="1" stroke-width="1" stroke-linecap="square" stroke-linejoin="round" transform="matrix(0.75,0,0,0.75,-4.85125,14.445)"
font-family="SimSun" font-size="9" font-weight="400" font-style="normal" 
>
<polyline fill="none" vector-effect="none" points="48,283 318,283 " />
<polyline fill="none" vector-effect="none" points="111.947,287.065 111.947,283 " />
<polyline fill="none" vector-effect="none" points="254.053,287.065 254.053,283 " />
</g>

<g fill="#2e2e2e" fill-opacity="1" stroke="#2e2e2e" stroke-opacity="1" stroke-width="1" stroke-linecap="square" stroke-linejoin="bevel" transform="matrix(0.75,0,0,0.75,55.8593,238.844)"
font-family="Arial" font-size="10" font-weight="400" font-style="normal" 
>
<text fill="#2e2e2e" fill-opacity="1" stroke="none" xml:space="preserve" x="0" y="0" font-family="Arial" font-size="10" font-weight="400" font-style="normal" 
 >In-distribution</text>
</g>

<g fill="#2e2e2e" fill-opacity="1" stroke="#2e2e2e" stroke-opacity="1" stroke-width="1" stroke-linecap="square" stroke-linejoin="bevel" transform="matrix(0.75,0,0,0.75,154.938,238.844)"
font-family="Arial" font-size="10" font-weight="400" font-style="normal" 
>
<text fill="#2e2e2e" fill-opacity="1" stroke="none" xml:space="preserve" x="0" y="0" font-family="Arial" font-size="10" font-weight="400" font-style="normal" 
 >OOD combination</text>
</g>

<g fill="#2e2e2e" fill-opacity="1" stroke="#2e2e2e" stroke-opacity="1" stroke-width="1" stroke-linecap="square" stroke-linejoin="bevel" transform="matrix(0,-0.75,0.75,0,7.5,167.07)"
font-family="Arial" font-size="11" font-weight="400" font-style="normal" 
>
<text fill="#2e2e2e" fill-opacity="1" stroke="none" xml:space="preserve" x="0" y="0" font-family="Arial" font-size="11" font-weight="400" font-style="normal" 
 >Terminal |theta| median</text>
</g>

<g fill="#2e2e2e" fill-opacity="1" stroke="#2e2e2e" stroke-opacity="1" stroke-width="1" stroke-linecap="square" stroke-linejoin="round" transform="matrix(0.75,0,0,0.75,-4.85125,14.445)"
font-family="Arial" font-size="11" font-weight="400" font-style="normal" 
>
<polyline fill="none" vector-effect="none" points="48,283 48,12 " />
<polyline fill="none" vector-effect="none" points="43.935,283 48,283 " />
<polyline fill="none" vector-effect="none" points="43.935,252.889 48,252.889 " />
<polyline fill="none" vector-effect="none" points="43.935,222.778 48,222.778 " />
<polyline fill="none" vector-effect="none" points="43.935,192.667 48,192.667 " />
<polyline fill="none" vector-effect="none" points="43.935,162.556 48,162.556 " />
<polyline fill="none" vector-effect="none" points="43.935,132.444 48,132.444 " />
<polyline fill="none" vector-effect="none" points="43.935,102.333 48,102.333 " />
<polyline fill="none" vector-effect="none" points="43.935,72.2222 48,72.2222 " />
<polyline fill="none" vector-effect="none" points="43.935,42.1111 48,42.1111 " />
<polyline fill="none" vector-effect="none" points="43.935,12 48,12 " />
</g>

<g fill="#2e2e2e" fill-opacity="1" stroke="#2e2e2e" stroke-opacity="1" stroke-width="1" stroke-linecap="square" stroke-linejoin="bevel" transform="matrix(0.75,0,0,0.75,10.75,229.32)"
font-family="Arial" font-size="10" font-weight="400" font-style="normal" 
>
<text fill="#2e2e2e" fill-opacity="1" stroke="none" xml:space="preserve" x="0" y="0" font-family="Arial" font-size="10" font-weight="400" font-style="normal" 
 >0.15</text>
</g>

<g fill="#2e2e2e" fill-opacity="1" stroke="#2e2e2e" stroke-opacity="1" stroke-width="1" stroke-linecap="square" stroke-linejoin="bevel" transform="matrix(0.75,0,0,0.75,15.25,206.737)"
font-family="Arial" font-size="10" font-weight="400" font-style="normal" 
>
<text fill="#2e2e2e" fill-opacity="1" stroke="none" xml:space="preserve" x="0" y="0" font-family="Arial" font-size="10" font-weight="400" font-style="normal" 
 >0.2</text>
</g>

<g fill="#2e2e2e" fill-opacity="1" stroke="#2e2e2e" stroke-opacity="1" stroke-width="1" stroke-linecap="square" stroke-linejoin="bevel" transform="matrix(0.75,0,0,0.75,10.75,184.153)"
font-family="Arial" font-size="10" font-weight="400" font-style="normal" 
>
<text fill="#2e2e2e" fill-opacity="1" stroke="none" xml:space="preserve" x="0" y="0" font-family="Arial" font-size="10" font-weight="400" font-style="normal" 
 >0.25</text>
</g>

<g fill="#2e2e2e" fill-opacity="1" stroke="#2e2e2e" stroke-opacity="1" stroke-width="1" stroke-linecap="square" stroke-linejoin="bevel" transform="matrix(0.75,0,0,0.75,15.25,161.57)"
font-family="Arial" font-size="10" font-weight="400" font-style="normal" 
>
<text fill="#2e2e2e" fill-opacity="1" stroke="none" xml:space="preserve" x="0" y="0" font-family="Arial" font-size="10" font-weight="400" font-style="normal" 
 >0.3</text>
</g>

<g fill="#2e2e2e" fill-opacity="1" stroke="#2e2e2e" stroke-opacity="1" stroke-width="1" stroke-linecap="square" stroke-linejoin="bevel" transform="matrix(0.75,0,0,0.75,10.75,138.987)"
font-family="Arial" font-size="10" font-weight="400" font-style="normal" 
>
<text fill="#2e2e2e" fill-opacity="1" stroke="none" xml:space="preserve" x="0" y="0" font-family="Arial" font-size="10" font-weight="400" font-style="normal" 
 >0.35</text>
</g>

<g fill="#2e2e2e" fill-opacity="1" stroke="#2e2e2e" stroke-opacity="1" stroke-width="1" stroke-linecap="square" stroke-linejoin="bevel" transform="matrix(0.75,0,0,0.75,15.25,116.403)"
font-family="Arial" font-size="10" font-weight="400" font-style="normal" 
>
<text fill="#2e2e2e" fill-opacity="1" stroke="none" xml:space="preserve" x="0" y="0" font-family="Arial" font-size="10" font-weight="400" font-style="normal" 
 >0.4</text>
</g>

<g fill="#2e2e2e" fill-opacity="1" stroke="#2e2e2e" stroke-opacity="1" stroke-width="1" stroke-linecap="square" stroke-linejoin="bevel" transform="matrix(0.75,0,0,0.75,10.75,93.82)"
font-family="Arial" font-size="10" font-weight="400" font-style="normal" 
>
<text fill="#2e2e2e" fill-opacity="1" stroke="none" xml:space="preserve" x="0" y="0" font-family="Arial" font-size="10" font-weight="400" font-style="normal" 
 >0.45</text>
</g>

<g fill="#2e2e2e" fill-opacity="1" stroke="#2e2e2e" stroke-opacity="1" stroke-width="1" stroke-linecap="square" stroke-linejoin="bevel" transform="matrix(0.75,0,0,0.75,15.25,71.2367)"
font-family="Arial" font-size="10" font-weight="400" font-style="normal" 
>
<text fill="#2e2e2e" fill-opacity="1" stroke="none" xml:space="preserve" x="0" y="0" font-family="Arial" font-size="10" font-weight="400" font-style="normal" 
 >0.5</text>
</g>

<g fill="#2e2e2e" fill-opacity="1" stroke="#2e2e2e" stroke-opacity="1" stroke-width="1" stroke-linecap="square" stroke-linejoin="bevel" transform="matrix(0.75,0,0,0.75,10.75,48.6533)"
font-family="Arial" font-size="10" font-weight="400" font-style="normal" 
>
<text fill="#2e2e2e" fill-opacity="1" stroke="none" xml:space="preserve" x="0" y="0" font-family="Arial" font-size="10" font-weight="400" font-style="normal" 
 >0.55</text>
</g>

<g fill="#2e2e2e" fill-opacity="1" stroke="#2e2e2e" stroke-opacity="1" stroke-width="1" stroke-linecap="square" stroke-linejoin="bevel" transform="matrix(0.75,0,0,0.75,15.25,26.07)"
font-family="Arial" font-size="10" font-weight="400" font-style="normal" 
>
<text fill="#2e2e2e" fill-opacity="1" stroke="none" xml:space="preserve" x="0" y="0" font-family="Arial" font-size="10" font-weight="400" font-style="normal" 
 >0.6</text>
</g>

<g fill="#212121" fill-opacity="1" stroke="#212121" stroke-opacity="1" stroke-width="1" stroke-linecap="square" stroke-linejoin="bevel" transform="matrix(0.75,0,0,0.75,7.59875,8.25)"
font-family="Arial" font-size="13" font-weight="700" font-style="normal" 
>
<text fill="#212121" fill-opacity="1" stroke="none" xml:space="preserve" x="0" y="0" font-family="Arial" font-size="13" font-weight="700" font-style="normal" 
 >a</text>
</g>

<g fill="#0072b2" fill-opacity="0.780392" stroke="none" transform="matrix(0.75,0,0,0.75,-4.85125,14.445)"
font-family="Arial" font-size="13" font-weight="700" font-style="normal" 
>
<circle cx="390.923" cy="114.533" r="3.52767"/>
</g>

<g fill="none" stroke="#ffffff" stroke-opacity="1" stroke-width="0.533333" stroke-linecap="butt" stroke-linejoin="miter" stroke-miterlimit="2" transform="matrix(0.75,0,0,0.75,-4.85125,14.445)"
font-family="Arial" font-size="13" font-weight="700" font-style="normal" 
>
<path vector-effect="none" fill-rule="evenodd" d="M394.451,114.533 C394.451,112.585 392.871,111.005 390.923,111.005 C388.975,111.005 387.395,112.585 387.395,114.533 C387.395,116.481 388.975,118.061 390.923,118.061 C392.871,118.061 394.451,116.481 394.451,114.533 "/>
</g>

<g fill="#0072b2" fill-opacity="0.780392" stroke="none" transform="matrix(0.75,0,0,0.75,-4.85125,14.445)"
font-family="Arial" font-size="13" font-weight="700" font-style="normal" 
>
<circle cx="403.385" cy="72.368" r="3.52767"/>
</g>

<g fill="none" stroke="#ffffff" stroke-opacity="1" stroke-width="0.533333" stroke-linecap="butt" stroke-linejoin="miter" stroke-miterlimit="2" transform="matrix(0.75,0,0,0.75,-4.85125,14.445)"
font-family="Arial" font-size="13" font-weight="700" font-style="normal" 
>
<path vector-effect="none" fill-rule="evenodd" d="M406.912,72.368 C406.912,70.4197 405.333,68.8403 403.385,68.8403 C401.436,68.8403 399.857,70.4197 399.857,72.368 C399.857,74.3162 401.436,75.8956 403.385,75.8956 C405.333,75.8956 406.912,74.3162 406.912,72.368 "/>
</g>

<g fill="#262626" fill-opacity="1" stroke="#262626" stroke-opacity="1" stroke-width="2.13333" stroke-linecap="butt" stroke-linejoin="round" transform="matrix(0.75,0,0,0.75,-4.85125,14.445)"
font-family="Arial" font-size="13" font-weight="700" font-style="normal" 
>
<polyline fill="none" vector-effect="none" points="397.154,114.533 397.154,72.368 " />
</g>

<g fill="#262626" fill-opacity="1" stroke="#262626" stroke-opacity="1" stroke-width="2.93333" stroke-linecap="butt" stroke-linejoin="round" transform="matrix(0.75,0,0,0.75,-4.85125,14.445)"
font-family="Arial" font-size="13" font-weight="700" font-style="normal" 
>
<polyline fill="none" vector-effect="none" points="389.538,93.4504 404.769,93.4504 " />
</g>

<g fill="#d55e00" fill-opacity="0.780392" stroke="none" transform="matrix(0.75,0,0,0.75,-4.85125,14.445)"
font-family="Arial" font-size="13" font-weight="700" font-style="normal" 
>
<circle cx="460.154" cy="195.181" r="3.52767"/>
</g>

<g fill="none" stroke="#ffffff" stroke-opacity="1" stroke-width="0.533333" stroke-linecap="butt" stroke-linejoin="miter" stroke-miterlimit="2" transform="matrix(0.75,0,0,0.75,-4.85125,14.445)"
font-family="Arial" font-size="13" font-weight="700" font-style="normal" 
>
<path vector-effect="none" fill-rule="evenodd" d="M463.681,195.181 C463.681,193.233 462.102,191.653 460.154,191.653 C458.206,191.653 456.626,193.233 456.626,195.181 C456.626,197.129 458.206,198.709 460.154,198.709 C462.102,198.709 463.681,197.129 463.681,195.181 "/>
</g>

<g fill="#d55e00" fill-opacity="0.780392" stroke="none" transform="matrix(0.75,0,0,0.75,-4.85125,14.445)"
font-family="Arial" font-size="13" font-weight="700" font-style="normal" 
>
<circle cx="472.615" cy="39.3925" r="3.52767"/>
</g>

<g fill="none" stroke="#ffffff" stroke-opacity="1" stroke-width="0.533333" stroke-linecap="butt" stroke-linejoin="miter" stroke-miterlimit="2" transform="matrix(0.75,0,0,0.75,-4.85125,14.445)"
font-family="Arial" font-size="13" font-weight="700" font-style="normal" 
>
<path vector-effect="none" fill-rule="evenodd" d="M476.143,39.3925 C476.143,37.4443 474.564,35.8649 472.615,35.8649 C470.667,35.8649 469.088,37.4443 469.088,39.3925 C469.088,41.3408 470.667,42.9202 472.615,42.9202 C474.564,42.9202 476.143,41.3408 476.143,39.3925 "/>
</g>

<g fill="#262626" fill-opacity="1" stroke="#262626" stroke-opacity="1" stroke-width="2.13333" stroke-linecap="butt" stroke-linejoin="round" transform="matrix(0.75,0,0,0.75,-4.85125,14.445)"
font-family="Arial" font-size="13" font-weight="700" font-style="normal" 
>
<polyline fill="none" vector-effect="none" points="466.385,195.181 466.385,39.3925 " />
</g>

<g fill="#262626" fill-opacity="1" stroke="#262626" stroke-opacity="1" stroke-width="2.93333" stroke-linecap="butt" stroke-linejoin="round" transform="matrix(0.75,0,0,0.75,-4.85125,14.445)"
font-family="Arial" font-size="13" font-weight="700" font-style="normal" 
>
<polyline fill="none" vector-effect="none" points="458.769,117.287 474,117.287 " />
</g>

<g fill="#009e73" fill-opacity="0.780392" stroke="none" transform="matrix(0.75,0,0,0.75,-4.85125,14.445)"
font-family="Arial" font-size="13" font-weight="700" font-style="normal" 
>
<circle cx="529.385" cy="198.851" r="3.52767"/>
</g>

<g fill="none" stroke="#ffffff" stroke-opacity="1" stroke-width="0.533333" stroke-linecap="butt" stroke-linejoin="miter" stroke-miterlimit="2" transform="matrix(0.75,0,0,0.75,-4.85125,14.445)"
font-family="Arial" font-size="13" font-weight="700" font-style="normal" 
>
<path vector-effect="none" fill-rule="evenodd" d="M532.912,198.851 C532.912,196.902 531.333,195.323 529.385,195.323 C527.436,195.323 525.857,196.902 525.857,198.851 C525.857,200.799 527.436,202.378 529.385,202.378 C531.333,202.378 532.912,200.799 532.912,198.851 "/>
</g>

<g fill="#009e73" fill-opacity="0.780392" stroke="none" transform="matrix(0.75,0,0,0.75,-4.85125,14.445)"
font-family="Arial" font-size="13" font-weight="700" font-style="normal" 
>
<circle cx="535.615" cy="204.181" r="3.52767"/>
</g>

<g fill="none" stroke="#ffffff" stroke-opacity="1" stroke-width="0.533333" stroke-linecap="butt" stroke-linejoin="miter" stroke-miterlimit="2" transform="matrix(0.75,0,0,0.75,-4.85125,14.445)"
font-family="Arial" font-size="13" font-weight="700" font-style="normal" 
>
<path vector-effect="none" fill-rule="evenodd" d="M539.143,204.181 C539.143,202.232 537.564,200.653 535.615,200.653 C533.667,200.653 532.088,202.232 532.088,204.181 C532.088,206.129 533.667,207.708 535.615,207.708 C537.564,207.708 539.143,206.129 539.143,204.181 "/>
</g>

<g fill="#009e73" fill-opacity="0.780392" stroke="none" transform="matrix(0.75,0,0,0.75,-4.85125,14.445)"
font-family="Arial" font-size="13" font-weight="700" font-style="normal" 
>
<circle cx="541.846" cy="203.335" r="3.52767"/>
</g>

<g fill="none" stroke="#ffffff" stroke-opacity="1" stroke-width="0.533333" stroke-linecap="butt" stroke-linejoin="miter" stroke-miterlimit="2" transform="matrix(0.75,0,0,0.75,-4.85125,14.445)"
font-family="Arial" font-size="13" font-weight="700" font-style="normal" 
>
<path vector-effect="none" fill-rule="evenodd" d="M545.374,203.335 C545.374,201.387 543.794,199.808 541.846,199.808 C539.898,199.808 538.318,201.387 538.318,203.335 C538.318,205.284 539.898,206.863 541.846,206.863 C543.794,206.863 545.374,205.284 545.374,203.335 "/>
</g>

<g fill="#262626" fill-opacity="1" stroke="#262626" stroke-opacity="1" stroke-width="2.13333" stroke-linecap="butt" stroke-linejoin="round" transform="matrix(0.75,0,0,0.75,-4.85125,14.445)"
font-family="Arial" font-size="13" font-weight="700" font-style="normal" 
>
<polyline fill="none" vector-effect="none" points="535.615,203.969 535.615,199.972 " />
</g>

<g fill="#262626" fill-opacity="1" stroke="#262626" stroke-opacity="1" stroke-width="2.93333" stroke-linecap="butt" stroke-linejoin="round" transform="matrix(0.75,0,0,0.75,-4.85125,14.445)"
font-family="Arial" font-size="13" font-weight="700" font-style="normal" 
>
<polyline fill="none" vector-effect="none" points="528,203.335 543.231,203.335 " />
</g>

<g fill="#e69f00" fill-opacity="0.780392" stroke="none" transform="matrix(0.75,0,0,0.75,-4.85125,14.445)"
font-family="Arial" font-size="13" font-weight="700" font-style="normal" 
>
<circle cx="598.615" cy="167.128" r="3.52767"/>
</g>

<g fill="none" stroke="#ffffff" stroke-opacity="1" stroke-width="0.533333" stroke-linecap="butt" stroke-linejoin="miter" stroke-miterlimit="2" transform="matrix(0.75,0,0,0.75,-4.85125,14.445)"
font-family="Arial" font-size="13" font-weight="700" font-style="normal" 
>
<path vector-effect="none" fill-rule="evenodd" d="M602.143,167.128 C602.143,165.18 600.564,163.601 598.615,163.601 C596.667,163.601 595.088,165.18 595.088,167.128 C595.088,169.077 596.667,170.656 598.615,170.656 C600.564,170.656 602.143,169.077 602.143,167.128 "/>
</g>

<g fill="#e69f00" fill-opacity="0.780392" stroke="none" transform="matrix(0.75,0,0,0.75,-4.85125,14.445)"
font-family="Arial" font-size="13" font-weight="700" font-style="normal" 
>
<circle cx="601.108" cy="198.851" r="3.52767"/>
</g>

<g fill="none" stroke="#ffffff" stroke-opacity="1" stroke-width="0.533333" stroke-linecap="butt" stroke-linejoin="miter" stroke-miterlimit="2" transform="matrix(0.75,0,0,0.75,-4.85125,14.445)"
font-family="Arial" font-size="13" font-weight="700" font-style="normal" 
>
<path vector-effect="none" fill-rule="evenodd" d="M604.635,198.851 C604.635,196.902 603.056,195.323 601.108,195.323 C599.159,195.323 597.58,196.902 597.58,198.851 C597.58,200.799 599.159,202.378 601.108,202.378 C603.056,202.378 604.635,200.799 604.635,198.851 "/>
</g>

<g fill="#e69f00" fill-opacity="0.780392" stroke="none" transform="matrix(0.75,0,0,0.75,-4.85125,14.445)"
font-family="Arial" font-size="13" font-weight="700" font-style="normal" 
>
<circle cx="603.6" cy="256.177" r="3.52767"/>
</g>

<g fill="none" stroke="#ffffff" stroke-opacity="1" stroke-width="0.533333" stroke-linecap="butt" stroke-linejoin="miter" stroke-miterlimit="2" transform="matrix(0.75,0,0,0.75,-4.85125,14.445)"
font-family="Arial" font-size="13" font-weight="700" font-style="normal" 
>
<path vector-effect="none" fill-rule="evenodd" d="M607.128,256.177 C607.128,254.229 605.548,252.649 603.6,252.649 C601.652,252.649 600.072,254.229 600.072,256.177 C600.072,258.125 601.652,259.704 603.6,259.704 C605.548,259.704 607.128,258.125 607.128,256.177 "/>
</g>

<g fill="#e69f00" fill-opacity="0.780392" stroke="none" transform="matrix(0.75,0,0,0.75,-4.85125,14.445)"
font-family="Arial" font-size="13" font-weight="700" font-style="normal" 
>
<circle cx="606.092" cy="163.746" r="3.52767"/>
</g>

<g fill="none" stroke="#ffffff" stroke-opacity="1" stroke-width="0.533333" stroke-linecap="butt" stroke-linejoin="miter" stroke-miterlimit="2" transform="matrix(0.75,0,0,0.75,-4.85125,14.445)"
font-family="Arial" font-size="13" font-weight="700" font-style="normal" 
>
<path vector-effect="none" fill-rule="evenodd" d="M609.62,163.746 C609.62,161.798 608.041,160.218 606.092,160.218 C604.144,160.218 602.565,161.798 602.565,163.746 C602.565,165.694 604.144,167.274 606.092,167.274 C608.041,167.274 609.62,165.694 609.62,163.746 "/>
</g>

<g fill="#e69f00" fill-opacity="0.780392" stroke="none" transform="matrix(0.75,0,0,0.75,-4.85125,14.445)"
font-family="Arial" font-size="13" font-weight="700" font-style="normal" 
>
<circle cx="608.585" cy="204.181" r="3.52767"/>
</g>

<g fill="none" stroke="#ffffff" stroke-opacity="1" stroke-width="0.533333" stroke-linecap="butt" stroke-linejoin="miter" stroke-miterlimit="2" transform="matrix(0.75,0,0,0.75,-4.85125,14.445)"
font-family="Arial" font-size="13" font-weight="700" font-style="normal" 
>
<path vector-effect="none" fill-rule="evenodd" d="M612.112,204.181 C612.112,202.232 610.533,200.653 608.585,200.653 C606.636,200.653 605.057,202.232 605.057,204.181 C605.057,206.129 606.636,207.708 608.585,207.708 C610.533,207.708 612.112,206.129 612.112,204.181 "/>
</g>

<g fill="#e69f00" fill-opacity="0.780392" stroke="none" transform="matrix(0.75,0,0,0.75,-4.85125,14.445)"
font-family="Arial" font-size="13" font-weight="700" font-style="normal" 
>
<circle cx="611.077" cy="203.335" r="3.52767"/>
</g>

<g fill="none" stroke="#ffffff" stroke-opacity="1" stroke-width="0.533333" stroke-linecap="butt" stroke-linejoin="miter" stroke-miterlimit="2" transform="matrix(0.75,0,0,0.75,-4.85125,14.445)"
font-family="Arial" font-size="13" font-weight="700" font-style="normal" 
>
<path vector-effect="none" fill-rule="evenodd" d="M614.605,203.335 C614.605,201.387 613.025,199.808 611.077,199.808 C609.129,199.808 607.549,201.387 607.549,203.335 C607.549,205.284 609.129,206.863 611.077,206.863 C613.025,206.863 614.605,205.284 614.605,203.335 "/>
</g>

<g fill="#262626" fill-opacity="1" stroke="#262626" stroke-opacity="1" stroke-width="2.13333" stroke-linecap="butt" stroke-linejoin="round" transform="matrix(0.75,0,0,0.75,-4.85125,14.445)"
font-family="Arial" font-size="13" font-weight="700" font-style="normal" 
>
<polyline fill="none" vector-effect="none" points="604.846,204.18 604.846,167.128 " />
</g>

<g fill="#262626" fill-opacity="1" stroke="#262626" stroke-opacity="1" stroke-width="2.93333" stroke-linecap="butt" stroke-linejoin="round" transform="matrix(0.75,0,0,0.75,-4.85125,14.445)"
font-family="Arial" font-size="13" font-weight="700" font-style="normal" 
>
<polyline fill="none" vector-effect="none" points="597.231,201.093 612.462,201.093 " />
</g>

<g fill="#d1d1d1" fill-opacity="0.54902" stroke="#d1d1d1" stroke-opacity="0.54902" stroke-width="1" stroke-linecap="butt" stroke-linejoin="round" transform="matrix(0.75,0,0,0.75,-4.85125,14.445)"
font-family="Arial" font-size="13" font-weight="700" font-style="normal" 
>
<polyline fill="none" vector-effect="none" points="397.154,12 397.154,283 " />
<polyline fill="none" vector-effect="none" points="466.385,12 466.385,283 " />
<polyline fill="none" vector-effect="none" points="535.615,12 535.615,283 " />
<polyline fill="none" vector-effect="none" points="604.846,12 604.846,283 " />
<polyline fill="none" vector-effect="none" points="366,283 636,283 " />
<polyline fill="none" vector-effect="none" points="366,252.889 636,252.889 " />
<polyline fill="none" vector-effect="none" points="366,222.778 636,222.778 " />
<polyline fill="none" vector-effect="none" points="366,192.667 636,192.667 " />
<polyline fill="none" vector-effect="none" points="366,162.556 636,162.556 " />
<polyline fill="none" vector-effect="none" points="366,132.444 636,132.444 " />
<polyline fill="none" vector-effect="none" points="366,102.333 636,102.333 " />
<polyline fill="none" vector-effect="none" points="366,72.2222 636,72.2222 " />
<polyline fill="none" vector-effect="none" points="366,42.1111 636,42.1111 " />
<polyline fill="none" vector-effect="none" points="366,12 636,12 " />
</g>

<g fill="#2e2e2e" fill-opacity="1" stroke="#2e2e2e" stroke-opacity="1" stroke-width="1" stroke-linecap="square" stroke-linejoin="round" transform="matrix(0.75,0,0,0.75,-4.85125,14.445)"
font-family="Arial" font-size="13" font-weight="700" font-style="normal" 
>
<polyline fill="none" vector-effect="none" points="366,283 636,283 " />
<polyline fill="none" vector-effect="none" points="397.154,287.065 397.154,283 " />
<polyline fill="none" vector-effect="none" points="466.385,287.065 466.385,283 " />
<polyline fill="none" vector-effect="none" points="535.615,287.065 535.615,283 " />
<polyline fill="none" vector-effect="none" points="604.846,287.065 604.846,283 " />
</g>

<g fill="#2e2e2e" fill-opacity="1" stroke="#2e2e2e" stroke-opacity="1" stroke-width="1" stroke-linecap="square" stroke-linejoin="bevel" transform="matrix(0.75,0,0,0.75,280.149,238.695)"
font-family="Arial" font-size="10" font-weight="400" font-style="normal" 
>
<text fill="#2e2e2e" fill-opacity="1" stroke="none" xml:space="preserve" x="0" y="0" font-family="Arial" font-size="10" font-weight="400" font-style="normal" 
 >DS05</text>
</g>

<g fill="#2e2e2e" fill-opacity="1" stroke="#2e2e2e" stroke-opacity="1" stroke-width="1" stroke-linecap="square" stroke-linejoin="bevel" transform="matrix(0.75,0,0,0.75,299.649,242.445)"
font-family="Arial" font-size="8" font-weight="400" font-style="normal" 
>
<text fill="#2e2e2e" fill-opacity="1" stroke="none" xml:space="preserve" x="0" y="0" font-family="Arial" font-size="8" font-weight="400" font-style="normal" 
 >i</text>
</g>

<g fill="#2e2e2e" fill-opacity="1" stroke="#2e2e2e" stroke-opacity="1" stroke-width="1" stroke-linecap="square" stroke-linejoin="bevel" transform="matrix(0.75,0,0,0.75,301.149,238.695)"
font-family="Arial" font-size="10" font-weight="400" font-style="normal" 
>
<text fill="#2e2e2e" fill-opacity="1" stroke="none" xml:space="preserve" x="0" y="0" font-family="Arial" font-size="10" font-weight="400" font-style="normal" 
 >d</text>
</g>

<g fill="#2e2e2e" fill-opacity="1" stroke="#2e2e2e" stroke-opacity="1" stroke-width="1" stroke-linecap="square" stroke-linejoin="bevel" transform="matrix(0.75,0,0,0.75,331.899,238.695)"
font-family="Arial" font-size="10" font-weight="400" font-style="normal" 
>
<text fill="#2e2e2e" fill-opacity="1" stroke="none" xml:space="preserve" x="0" y="0" font-family="Arial" font-size="10" font-weight="400" font-style="normal" 
 >DS07</text>
</g>

<g fill="#2e2e2e" fill-opacity="1" stroke="#2e2e2e" stroke-opacity="1" stroke-width="1" stroke-linecap="square" stroke-linejoin="bevel" transform="matrix(0.75,0,0,0.75,351.399,242.445)"
font-family="Arial" font-size="8" font-weight="400" font-style="normal" 
>
<text fill="#2e2e2e" fill-opacity="1" stroke="none" xml:space="preserve" x="0" y="0" font-family="Arial" font-size="8" font-weight="400" font-style="normal" 
 >i</text>
</g>

<g fill="#2e2e2e" fill-opacity="1" stroke="#2e2e2e" stroke-opacity="1" stroke-width="1" stroke-linecap="square" stroke-linejoin="bevel" transform="matrix(0.75,0,0,0.75,352.899,238.695)"
font-family="Arial" font-size="10" font-weight="400" font-style="normal" 
>
<text fill="#2e2e2e" fill-opacity="1" stroke="none" xml:space="preserve" x="0" y="0" font-family="Arial" font-size="10" font-weight="400" font-style="normal" 
 >d</text>
</g>

<g fill="#2e2e2e" fill-opacity="1" stroke="#2e2e2e" stroke-opacity="1" stroke-width="1" stroke-linecap="square" stroke-linejoin="bevel" transform="matrix(0.75,0,0,0.75,387.11,238.844)"
font-family="Arial" font-size="10" font-weight="400" font-style="normal" 
>
<text fill="#2e2e2e" fill-opacity="1" stroke="none" xml:space="preserve" x="0" y="0" font-family="Arial" font-size="10" font-weight="400" font-style="normal" 
 >DS02</text>
</g>

<g fill="#2e2e2e" fill-opacity="1" stroke="#2e2e2e" stroke-opacity="1" stroke-width="1" stroke-linecap="square" stroke-linejoin="bevel" transform="matrix(0.75,0,0,0.75,439.033,238.844)"
font-family="Arial" font-size="10" font-weight="400" font-style="normal" 
>
<text fill="#2e2e2e" fill-opacity="1" stroke="none" xml:space="preserve" x="0" y="0" font-family="Arial" font-size="10" font-weight="400" font-style="normal" 
 >DS03</text>
</g>

<g fill="#2e2e2e" fill-opacity="1" stroke="#2e2e2e" stroke-opacity="1" stroke-width="1" stroke-linecap="square" stroke-linejoin="bevel" transform="matrix(0,-0.75,0.75,0,246,167.07)"
font-family="Arial" font-size="11" font-weight="400" font-style="normal" 
>
<text fill="#2e2e2e" fill-opacity="1" stroke="none" xml:space="preserve" x="0" y="0" font-family="Arial" font-size="11" font-weight="400" font-style="normal" 
 >Terminal |theta| median</text>
</g>

<g fill="#2e2e2e" fill-opacity="1" stroke="#2e2e2e" stroke-opacity="1" stroke-width="1" stroke-linecap="square" stroke-linejoin="round" transform="matrix(0.75,0,0,0.75,-4.85125,14.445)"
font-family="Arial" font-size="11" font-weight="400" font-style="normal" 
>
<polyline fill="none" vector-effect="none" points="366,283 366,12 " />
<polyline fill="none" vector-effect="none" points="361.935,283 366,283 " />
<polyline fill="none" vector-effect="none" points="361.935,252.889 366,252.889 " />
<polyline fill="none" vector-effect="none" points="361.935,222.778 366,222.778 " />
<polyline fill="none" vector-effect="none" points="361.935,192.667 366,192.667 " />
<polyline fill="none" vector-effect="none" points="361.935,162.556 366,162.556 " />
<polyline fill="none" vector-effect="none" points="361.935,132.444 366,132.444 " />
<polyline fill="none" vector-effect="none" points="361.935,102.333 366,102.333 " />
<polyline fill="none" vector-effect="none" points="361.935,72.2222 366,72.2222 " />
<polyline fill="none" vector-effect="none" points="361.935,42.1111 366,42.1111 " />
<polyline fill="none" vector-effect="none" points="361.935,12 366,12 " />
</g>

<g fill="#2e2e2e" fill-opacity="1" stroke="#2e2e2e" stroke-opacity="1" stroke-width="1" stroke-linecap="square" stroke-linejoin="bevel" transform="matrix(0.75,0,0,0.75,249.25,229.32)"
font-family="Arial" font-size="10" font-weight="400" font-style="normal" 
>
<text fill="#2e2e2e" fill-opacity="1" stroke="none" xml:space="preserve" x="0" y="0" font-family="Arial" font-size="10" font-weight="400" font-style="normal" 
 >0.15</text>
</g>

<g fill="#2e2e2e" fill-opacity="1" stroke="#2e2e2e" stroke-opacity="1" stroke-width="1" stroke-linecap="square" stroke-linejoin="bevel" transform="matrix(0.75,0,0,0.75,253.75,206.737)"
font-family="Arial" font-size="10" font-weight="400" font-style="normal" 
>
<text fill="#2e2e2e" fill-opacity="1" stroke="none" xml:space="preserve" x="0" y="0" font-family="Arial" font-size="10" font-weight="400" font-style="normal" 
 >0.2</text>
</g>

<g fill="#2e2e2e" fill-opacity="1" stroke="#2e2e2e" stroke-opacity="1" stroke-width="1" stroke-linecap="square" stroke-linejoin="bevel" transform="matrix(0.75,0,0,0.75,249.25,184.153)"
font-family="Arial" font-size="10" font-weight="400" font-style="normal" 
>
<text fill="#2e2e2e" fill-opacity="1" stroke="none" xml:space="preserve" x="0" y="0" font-family="Arial" font-size="10" font-weight="400" font-style="normal" 
 >0.25</text>
</g>

<g fill="#2e2e2e" fill-opacity="1" stroke="#2e2e2e" stroke-opacity="1" stroke-width="1" stroke-linecap="square" stroke-linejoin="bevel" transform="matrix(0.75,0,0,0.75,253.75,161.57)"
font-family="Arial" font-size="10" font-weight="400" font-style="normal" 
>
<text fill="#2e2e2e" fill-opacity="1" stroke="none" xml:space="preserve" x="0" y="0" font-family="Arial" font-size="10" font-weight="400" font-style="normal" 
 >0.3</text>
</g>

<g fill="#2e2e2e" fill-opacity="1" stroke="#2e2e2e" stroke-opacity="1" stroke-width="1" stroke-linecap="square" stroke-linejoin="bevel" transform="matrix(0.75,0,0,0.75,249.25,138.987)"
font-family="Arial" font-size="10" font-weight="400" font-style="normal" 
>
<text fill="#2e2e2e" fill-opacity="1" stroke="none" xml:space="preserve" x="0" y="0" font-family="Arial" font-size="10" font-weight="400" font-style="normal" 
 >0.35</text>
</g>

<g fill="#2e2e2e" fill-opacity="1" stroke="#2e2e2e" stroke-opacity="1" stroke-width="1" stroke-linecap="square" stroke-linejoin="bevel" transform="matrix(0.75,0,0,0.75,253.75,116.403)"
font-family="Arial" font-size="10" font-weight="400" font-style="normal" 
>
<text fill="#2e2e2e" fill-opacity="1" stroke="none" xml:space="preserve" x="0" y="0" font-family="Arial" font-size="10" font-weight="400" font-style="normal" 
 >0.4</text>
</g>

<g fill="#2e2e2e" fill-opacity="1" stroke="#2e2e2e" stroke-opacity="1" stroke-width="1" stroke-linecap="square" stroke-linejoin="bevel" transform="matrix(0.75,0,0,0.75,249.25,93.82)"
font-family="Arial" font-size="10" font-weight="400" font-style="normal" 
>
<text fill="#2e2e2e" fill-opacity="1" stroke="none" xml:space="preserve" x="0" y="0" font-family="Arial" font-size="10" font-weight="400" font-style="normal" 
 >0.45</text>
</g>

<g fill="#2e2e2e" fill-opacity="1" stroke="#2e2e2e" stroke-opacity="1" stroke-width="1" stroke-linecap="square" stroke-linejoin="bevel" transform="matrix(0.75,0,0,0.75,253.75,71.2367)"
font-family="Arial" font-size="10" font-weight="400" font-style="normal" 
>
<text fill="#2e2e2e" fill-opacity="1" stroke="none" xml:space="preserve" x="0" y="0" font-family="Arial" font-size="10" font-weight="400" font-style="normal" 
 >0.5</text>
</g>

<g fill="#2e2e2e" fill-opacity="1" stroke="#2e2e2e" stroke-opacity="1" stroke-width="1" stroke-linecap="square" stroke-linejoin="bevel" transform="matrix(0.75,0,0,0.75,249.25,48.6533)"
font-family="Arial" font-size="10" font-weight="400" font-style="normal" 
>
<text fill="#2e2e2e" fill-opacity="1" stroke="none" xml:space="preserve" x="0" y="0" font-family="Arial" font-size="10" font-weight="400" font-style="normal" 
 >0.55</text>
</g>

<g fill="#2e2e2e" fill-opacity="1" stroke="#2e2e2e" stroke-opacity="1" stroke-width="1" stroke-linecap="square" stroke-linejoin="bevel" transform="matrix(0.75,0,0,0.75,253.75,26.07)"
font-family="Arial" font-size="10" font-weight="400" font-style="normal" 
>
<text fill="#2e2e2e" fill-opacity="1" stroke="none" xml:space="preserve" x="0" y="0" font-family="Arial" font-size="10" font-weight="400" font-style="normal" 
 >0.6</text>
</g>

<g fill="#212121" fill-opacity="1" stroke="#212121" stroke-opacity="1" stroke-width="1" stroke-linecap="square" stroke-linejoin="bevel" transform="matrix(0.75,0,0,0.75,246.099,8.25)"
font-family="Arial" font-size="13" font-weight="700" font-style="normal" 
>
<text fill="#212121" fill-opacity="1" stroke="none" xml:space="preserve" x="0" y="0" font-family="Arial" font-size="13" font-weight="700" font-style="normal" 
 >b</text>
</g>
</g>
</svg>
